{
.appVersion = "3316";
.formatVersion = 3;
date = "2024-08-20 15:51:32 +0000";
familyName = "Clarke Titling Sans";
fontMaster = (
{
id = m01;
metricValues = (
{
over = 16;
pos = 800;
},
{
over = -16;
},
{
over = -16;
pos = -200;
},
{
pos = 720;
}
);
name = Regular;
userData = {
GSCornerRadius = 48;
};
}
);
glyphs = (
{
glyphname = A;
lastChange = "2024-08-22 15:08:03 +0000";
layers = (
{
layerId = m01;
shapes = (
{
closed = 1;
nodes = (
(126,0,l),
(126,648,ls),
(126,663,o),
(135,672,o),
(150,672,cs),
(210,672,ls),
(225,672,o),
(234,663,o),
(234,648,cs),
(234,0,l),
(342,0,l),
(342,672,ls),
(342,702,o),
(324,720,o),
(294,720,cs),
(66,720,ls),
(36,720,o),
(18,702,o),
(18,672,cs),
(18,0,l)
);
},
{
closed = 1;
nodes = (
(258,348,l),
(258,396,l),
(102,396,l),
(102,348,l)
);
}
);
width = 360;
}
);
unicode = 65;
},
{
glyphname = B;
lastChange = "2024-08-22 15:08:08 +0000";
layers = (
{
layerId = m01;
shapes = (
{
closed = 1;
nodes = (
(294,0,ls),
(324,0,o),
(342,18,o),
(342,48,cs),
(342,348,ls),
(342,378,o),
(324,396,o),
(294,396,c),
(324,396,o),
(342,414,o),
(342,444,cs),
(342,672,ls),
(342,702,o),
(324,720,o),
(294,720,cs),
(18,720,l),
(18,0,l)
);
},
{
closed = 1;
nodes = (
(126,372,l),
(210,372,ls),
(225,372,o),
(234,363,o),
(234,348,cs),
(234,72,ls),
(234,57,o),
(225,48,o),
(210,48,cs),
(126,48,l)
);
},
{
closed = 1;
nodes = (
(126,672,l),
(210,672,ls),
(225,672,o),
(234,663,o),
(234,648,cs),
(234,444,ls),
(234,429,o),
(225,420,o),
(210,420,cs),
(126,420,l)
);
}
);
width = 360;
}
);
unicode = 66;
},
{
glyphname = C;
lastChange = "2024-08-22 15:09:33 +0000";
layers = (
{
layerId = m01;
shapes = (
{
closed = 1;
nodes = (
(293,0,ls),
(324,0,o),
(342,18,o),
(342,49,cs),
(342,180,l),
(234,180,l),
(234,72,ls),
(234,57,o),
(225,48,o),
(210,48,cs),
(150,48,ls),
(135,48,o),
(126,57,o),
(126,72,cs),
(126,648,ls),
(126,663,o),
(135,672,o),
(150,672,cs),
(210,672,ls),
(225,672,o),
(234,663,o),
(234,648,cs),
(234,540,l),
(342,540,l),
(342,671,ls),
(342,702,o),
(324,720,o),
(293,720,cs),
(67,720,ls),
(36,720,o),
(18,702,o),
(18,671,cs),
(18,49,ls),
(18,18,o),
(36,0,o),
(67,0,cs)
);
}
);
width = 360;
}
);
unicode = 67;
},
{
glyphname = D;
lastChange = "2024-08-22 15:02:30 +0000";
layers = (
{
layerId = m01;
shapes = (
{
closed = 1;
nodes = (
(293,0,ls),
(324,0,o),
(342,18,o),
(342,49,cs),
(342,671,ls),
(342,702,o),
(324,720,o),
(293,720,cs),
(18,720,l),
(18,0,l)
);
},
{
closed = 1;
nodes = (
(126,672,l),
(210,672,ls),
(225,672,o),
(234,663,o),
(234,648,cs),
(234,72,ls),
(234,57,o),
(225,48,o),
(210,48,cs),
(126,48,l)
);
}
);
width = 360;
}
);
unicode = 68;
},
{
glyphname = E;
lastChange = "2024-08-22 15:08:13 +0000";
layers = (
{
layerId = m01;
shapes = (
{
closed = 1;
nodes = (
(294,0,l),
(294,48,l),
(126,48,l),
(126,373,l),
(270,373,l),
(270,421,l),
(126,421,l),
(126,672,l),
(294,672,l),
(294,720,l),
(18,720,l),
(18,0,l)
);
}
);
width = 312;
}
);
unicode = 69;
},
{
glyphname = F;
lastChange = "2024-08-22 15:08:18 +0000";
layers = (
{
layerId = m01;
shapes = (
{
closed = 1;
nodes = (
(126,0,l),
(126,372,l),
(270,372,l),
(270,420,l),
(126,420,l),
(126,672,l),
(294,672,l),
(294,720,l),
(18,720,l),
(18,0,l)
);
}
);
width = 312;
}
);
unicode = 70;
},
{
glyphname = G;
lastChange = "2024-08-22 15:08:22 +0000";
layers = (
{
layerId = m01;
shapes = (
{
closed = 1;
nodes = (
(293,0,ls),
(324,0,o),
(342,18,o),
(342,49,cs),
(342,420,l),
(166,420,l),
(166,372,l),
(234,372,l),
(234,72,ls),
(234,57,o),
(225,48,o),
(210,48,cs),
(150,48,ls),
(135,48,o),
(126,57,o),
(126,72,cs),
(126,648,ls),
(126,663,o),
(135,672,o),
(150,672,cs),
(210,672,ls),
(225,672,o),
(234,663,o),
(234,648,cs),
(234,540,l),
(342,540,l),
(342,671,ls),
(342,702,o),
(324,720,o),
(293,720,cs),
(67,720,ls),
(36,720,o),
(18,702,o),
(18,671,cs),
(18,49,ls),
(18,18,o),
(36,0,o),
(67,0,cs)
);
}
);
width = 360;
}
);
unicode = 71;
},
{
glyphname = H;
lastChange = "2024-08-22 15:08:31 +0000";
layers = (
{
layerId = m01;
shapes = (
{
closed = 1;
nodes = (
(126,0,l),
(126,372,l),
(234,372,l),
(234,0,l),
(342,0,l),
(342,720,l),
(234,720,l),
(234,420,l),
(126,420,l),
(126,720,l),
(18,720,l),
(18,0,l)
);
}
);
width = 360;
}
);
unicode = 72;
},
{
glyphname = I;
lastChange = "2024-08-22 15:02:30 +0000";
layers = (
{
layerId = m01;
shapes = (
{
closed = 1;
nodes = (
(18,0,l),
(126,0,l),
(126,720,l),
(18,720,l)
);
}
);
width = 144;
}
);
unicode = 73;
},
{
glyphname = J;
lastChange = "2024-08-22 15:02:30 +0000";
layers = (
{
layerId = m01;
shapes = (
{
closed = 1;
nodes = (
(293,0,ls),
(321,0,o),
(342,21,o),
(342,49,cs),
(342,720,l),
(234,720,l),
(234,72,ls),
(234,58,o),
(224,48,o),
(210,48,cs),
(150,48,ls),
(136,48,o),
(126,58,o),
(126,72,cs),
(126,240,l),
(18,240,l),
(18,49,ls),
(18,21,o),
(39,0,o),
(67,0,cs)
);
}
);
width = 360;
}
);
unicode = 74;
},
{
glyphname = K;
lastChange = "2024-08-22 15:08:42 +0000";
layers = (
{
layerId = m01;
shapes = (
{
closed = 1;
nodes = (
(342,0,l),
(234,396,l),
(342,720,l),
(234,720,l),
(126,396,l),
(234,0,l)
);
},
{
closed = 1;
nodes = (
(126,0,l),
(126,720,l),
(18,720,l),
(18,0,l)
);
}
);
width = 360;
}
);
unicode = 75;
},
{
glyphname = L;
lastChange = "2024-08-22 15:04:36 +0000";
layers = (
{
layerId = m01;
shapes = (
{
closed = 1;
nodes = (
(246,0,l),
(246,48,l),
(126,48,l),
(126,720,l),
(18,720,l),
(18,0,l)
);
}
);
width = 264;
}
);
unicode = 76;
},
{
glyphname = M;
lastChange = "2024-08-22 15:02:30 +0000";
layers = (
{
layerId = m01;
shapes = (
{
closed = 1;
nodes = (
(126,0,l),
(126,588,l),
(234,300,l),
(342,588,l),
(342,0,l),
(450,0,l),
(450,720,l),
(342,720,l),
(234,433,l),
(126,720,l),
(18,720,l),
(18,0,l)
);
}
);
width = 468;
}
);
unicode = 77;
},
{
glyphname = N;
lastChange = "2024-08-22 15:02:30 +0000";
layers = (
{
layerId = m01;
shapes = (
{
closed = 1;
nodes = (
(126,0,l),
(126,460,l),
(258,0,l),
(342,0,l),
(342,720,l),
(234,720,l),
(234,324,l),
(126,720,l),
(18,720,l),
(18,0,l)
);
}
);
width = 360;
}
);
unicode = 78;
},
{
glyphname = O;
lastChange = "2024-08-22 15:02:30 +0000";
layers = (
{
layerId = m01;
shapes = (
{
closed = 1;
nodes = (
(293,0,ls),
(324,0,o),
(342,18,o),
(342,49,cs),
(342,671,ls),
(342,702,o),
(324,720,o),
(293,720,cs),
(67,720,ls),
(36,720,o),
(18,702,o),
(18,671,cs),
(18,49,ls),
(18,18,o),
(36,0,o),
(67,0,cs)
);
},
{
closed = 1;
nodes = (
(126,648,ls),
(126,663,o),
(135,672,o),
(150,672,cs),
(210,672,ls),
(225,672,o),
(234,663,o),
(234,648,cs),
(234,72,ls),
(234,57,o),
(225,48,o),
(210,48,cs),
(150,48,ls),
(135,48,o),
(126,57,o),
(126,72,cs)
);
}
);
width = 360;
}
);
unicode = 79;
},
{
glyphname = P;
lastChange = "2024-08-22 15:07:58 +0000";
layers = (
{
layerId = m01;
shapes = (
{
closed = 1;
nodes = (
(126,0,l),
(126,672,l),
(210,672,ls),
(225,672,o),
(234,663,o),
(234,648,cs),
(234,372,ls),
(234,358,o),
(224,348,o),
(210,348,cs),
(102,348,l),
(102,300,l),
(294,300,ls),
(324,300,o),
(342,318,o),
(342,348,cs),
(342,672,ls),
(342,702,o),
(324,720,o),
(294,720,cs),
(18,720,l),
(18,0,l)
);
}
);
width = 360;
}
);
unicode = 80;
},
{
glyphname = Q;
lastChange = "2024-08-22 15:02:30 +0000";
layers = (
{
layerId = m01;
shapes = (
{
closed = 1;
nodes = (
(293,0,ls),
(324,0,o),
(342,18,o),
(342,49,cs),
(342,671,ls),
(342,702,o),
(324,720,o),
(293,720,cs),
(67,720,ls),
(36,720,o),
(18,702,o),
(18,671,cs),
(18,49,ls),
(18,18,o),
(36,0,o),
(67,0,cs)
);
},
{
closed = 1;
nodes = (
(234,-72,l),
(234,24,l),
(126,24,l),
(126,-72,l)
);
},
{
closed = 1;
nodes = (
(135,48,o),
(126,57,o),
(126,72,cs),
(126,648,ls),
(126,663,o),
(135,672,o),
(150,672,cs),
(210,672,ls),
(225,672,o),
(234,663,o),
(234,648,cs),
(234,72,ls),
(234,57,o),
(225,48,o),
(210,48,cs),
(150,48,ls)
);
}
);
width = 360;
}
);
unicode = 81;
},
{
glyphname = R;
lastChange = "2024-08-22 15:08:50 +0000";
layers = (
{
layerId = m01;
shapes = (
{
closed = 1;
nodes = (
(126,0,l),
(126,672,l),
(210,672,ls),
(225,672,o),
(234,663,o),
(234,648,cs),
(234,420,ls),
(234,406,o),
(224,396,o),
(210,396,cs),
(102,396,l),
(102,348,l),
(210,348,ls),
(224,348,o),
(234,338,o),
(234,324,cs),
(234,0,l),
(342,0,l),
(342,324,ls),
(342,354,o),
(324,372,o),
(294,372,c),
(324,372,o),
(342,390,o),
(342,420,cs),
(342,672,ls),
(342,702,o),
(324,720,o),
(294,720,cs),
(18,720,l),
(18,0,l)
);
}
);
width = 360;
}
);
unicode = 82;
},
{
glyphname = S;
lastChange = "2024-08-22 15:09:43 +0000";
layers = (
{
layerId = m01;
shapes = (
{
closed = 1;
nodes = (
(293,0,ls),
(321,0,o),
(342,21,o),
(342,49,cs),
(342,262,ls),
(342,270,o),
(338,280,o),
(333,287,cs),
(131,559,ls),
(128,562,o),
(126,567,o),
(126,571,cs),
(126,648,ls),
(126,662,o),
(136,672,o),
(150,672,cs),
(210,672,ls),
(224,672,o),
(234,662,o),
(234,648,cs),
(234,540,l),
(342,540,l),
(342,671,ls),
(342,699,o),
(321,720,o),
(293,720,cs),
(67,720,ls),
(39,720,o),
(18,699,o),
(18,671,cs),
(18,542,ls),
(18,534,o),
(22,524,o),
(27,517,cs),
(229,245,ls),
(232,242,o),
(234,237,o),
(234,233,cs),
(234,72,ls),
(234,58,o),
(224,48,o),
(210,48,cs),
(150,48,ls),
(136,48,o),
(126,58,o),
(126,72,cs),
(126,180,l),
(18,180,l),
(18,49,ls),
(18,21,o),
(39,0,o),
(67,0,cs)
);
}
);
width = 360;
}
);
unicode = 83;
},
{
glyphname = T;
lastChange = "2024-08-22 15:03:13 +0000";
layers = (
{
layerId = m01;
shapes = (
{
closed = 1;
nodes = (
(228,0,l),
(228,672,l),
(330,672,l),
(330,720,l),
(18,720,l),
(18,672,l),
(120,672,l),
(120,0,l)
);
}
);
width = 348;
}
);
unicode = 84;
},
{
glyphname = U;
lastChange = "2024-08-22 15:02:30 +0000";
layers = (
{
layerId = m01;
shapes = (
{
closed = 1;
nodes = (
(294,0,ls),
(324,0,o),
(342,18,o),
(342,48,cs),
(342,720,l),
(234,720,l),
(234,72,ls),
(234,57,o),
(225,48,o),
(210,48,cs),
(150,48,ls),
(135,48,o),
(126,57,o),
(126,72,cs),
(126,720,l),
(18,720,l),
(18,48,ls),
(18,18,o),
(36,0,o),
(66,0,cs)
);
}
);
width = 360;
}
);
unicode = 85;
},
{
glyphname = V;
lastChange = "2024-08-22 15:02:30 +0000";
layers = (
{
layerId = m01;
shapes = (
{
closed = 1;
nodes = (
(246,0,l),
(126,720,l),
(18,720,l),
(138,0,l)
);
},
{
closed = 1;
nodes = (
(246,0,l),
(366,720,l),
(322,720,l),
(202,0,l)
);
}
);
width = 384;
}
);
unicode = 86;
},
{
glyphname = W;
lastChange = "2024-08-22 15:02:30 +0000";
layers = (
{
layerId = m01;
shapes = (
{
closed = 1;
nodes = (
(462,0,l),
(558,720,l),
(450,720,l),
(354,0,l)
);
},
{
closed = 1;
nodes = (
(222,0,l),
(126,720,l),
(18,720,l),
(114,0,l)
);
},
{
closed = 1;
nodes = (
(222,0,l),
(288,264,l),
(354,0,l),
(402,0,l),
(288,456,l),
(174,0,l)
);
}
);
width = 576;
}
);
unicode = 87;
},
{
glyphname = X;
lastChange = "2024-08-22 15:02:30 +0000";
layers = (
{
layerId = m01;
shapes = (
{
closed = 1;
nodes = (
(62,0,l),
(202,372,l),
(226,372,l),
(366,720,l),
(322,720,l),
(182,372,l),
(158,372,l),
(18,0,l)
);
},
{
closed = 1;
nodes = (
(366,0,l),
(126,720,l),
(18,720,l),
(258,0,l)
);
}
);
width = 384;
}
);
unicode = 88;
},
{
glyphname = Y;
lastChange = "2024-08-22 15:02:30 +0000";
layers = (
{
layerId = m01;
shapes = (
{
closed = 1;
nodes = (
(246,0,l),
(246,372,l),
(126,720,l),
(18,720,l),
(138,372,l),
(138,0,l)
);
},
{
closed = 1;
nodes = (
(246,372,l),
(366,720,l),
(322,720,l),
(202,372,l)
);
}
);
width = 384;
}
);
unicode = 89;
},
{
glyphname = Z;
lastChange = "2024-08-22 15:02:30 +0000";
layers = (
{
layerId = m01;
shapes = (
{
closed = 1;
nodes = (
(318,0,l),
(318,48,l),
(134,48,l),
(318,720,l),
(18,720,l),
(18,672,l),
(202,672,l),
(18,0,l)
);
}
);
width = 336;
}
);
unicode = 90;
},
{
glyphname = period;
lastChange = "2024-08-22 15:02:30 +0000";
layers = (
{
layerId = m01;
shapes = (
{
closed = 1;
nodes = (
(18,48,ls),
(18,18,o),
(36,0,o),
(66,0,cs),
(78,0,ls),
(108,0,o),
(126,18,o),
(126,48,cs),
(126,48,ls),
(126,78,o),
(108,96,o),
(78,96,cs),
(66,96,ls),
(36,96,o),
(18,78,o),
(18,48,cs)
);
}
